<svg xmlns="http://www.w3.org/2000/svg" width="353.65582275390625" height="355.1976318359375" viewBox="-155.20034790039062 -137.33935546875 353.65582275390625 355.1976318359375"><title>Neo4j Graph Visualization</title><desc>Created using Neo4j (http://www.neo4j.com/)</desc><g class="layer relationships"><g class="relationship" transform="translate(15.766880149775451 188.85826794316105) rotate(272.35125030010477)"><path class="outline" fill="#A5ABB6" stroke="none" d="M 25 0.5 L 52.91691906814275 0.5 L 52.91691906814275 -0.5 L 25 -0.5 Z M 88.69035656814275 0.5 L 116.6072756362855 0.5 L 116.6072756362855 3.5 L 123.6072756362855 0 L 116.6072756362855 -3.5 L 116.6072756362855 -0.5 L 88.69035656814275 -0.5 Z"/><text text-anchor="middle" pointer-events="none" font-size="8px" fill="#000000" x="70.80363781814275" y="3" font-family="sans-serif">WROTE</text></g><g class="relationship" transform="translate(130.75501263715464 140.81729608757144) rotate(222.68836429351387)"><path class="outline" fill="#A5ABB6" stroke="none" d="M 25 0.5 L 52.683818943005974 0.5 L 52.683818943005974 -0.5 L 25 -0.5 Z M 88.45725644300597 0.5 L 116.14107538601195 0.5 L 116.14107538601195 3.5 L 123.14107538601195 0 L 116.14107538601195 -3.5 L 116.14107538601195 -0.5 L 88.45725644300597 -0.5 Z"/><text text-anchor="middle" pointer-events="none" font-size="8px" fill="#000000" x="70.57053769300597" y="3" transform="rotate(180 70.57053769300597 0)" font-family="sans-serif">WROTE</text></g><g class="relationship" transform="translate(169.45549610666592 23.445215088733356) rotate(533.4559652436517)"><path class="outline" fill="#A5ABB6" stroke="none" d="M 25 0.5 L 47.99867737548519 0.5 L 47.99867737548519 -0.5 L 25 -0.5 Z M 93.56117737548519 0.5 L 116.55985475097037 0.5 L 116.55985475097037 3.5 L 123.55985475097037 0 L 116.55985475097037 -3.5 L 116.55985475097037 -0.5 L 93.56117737548519 -0.5 Z"/><text text-anchor="middle" pointer-events="none" font-size="8px" fill="#000000" x="70.77992737548519" y="3" transform="rotate(180 70.77992737548519 0)" font-family="sans-serif">ACTED_IN</text></g><g class="relationship" transform="translate(121.43606399975482 -70.28553450934244) rotate(491.98063664471147)"><path class="outline" fill="#A5ABB6" stroke="none" d="M 25 0.5 L 48.151066898007656 0.5 L 48.151066898007656 -0.5 L 25 -0.5 Z M 93.71356689800766 0.5 L 116.86463379601531 0.5 L 116.86463379601531 3.5 L 123.86463379601531 0 L 116.86463379601531 -3.5 L 116.86463379601531 -0.5 L 93.71356689800766 -0.5 Z"/><text text-anchor="middle" pointer-events="none" font-size="8px" fill="#000000" x="70.93231689800766" y="3" transform="rotate(180 70.93231689800766 0)" font-family="sans-serif">ACTED_IN</text></g><g class="relationship" transform="translate(17.16740297238801 -108.3393532661863) rotate(448.1913016260487)"><path class="outline" fill="#A5ABB6" stroke="none" d="M 25 0.5 L 48.113544122993886 0.5 L 48.113544122993886 -0.5 L 25 -0.5 Z M 93.67604412299389 0.5 L 116.78958824598777 0.5 L 116.78958824598777 3.5 L 123.78958824598777 0 L 116.78958824598777 -3.5 L 116.78958824598777 -0.5 L 93.67604412299389 -0.5 Z"/><text text-anchor="middle" pointer-events="none" font-size="8px" fill="#000000" x="70.89479412299389" y="3" font-family="sans-serif">ACTED_IN</text></g><g class="relationship" transform="translate(-80.84683638313206 -67.97746159310572) rotate(406.53153569136316)"><path class="outline" fill="#A5ABB6" stroke="none" d="M 25 0.5 L 48.367801989828195 0.5 L 48.367801989828195 -0.5 L 25 -0.5 Z M 93.9303019898282 0.5 L 117.29810397965639 0.5 L 117.29810397965639 3.5 L 124.29810397965639 0 L 117.29810397965639 -3.5 L 117.29810397965639 -0.5 L 93.9303019898282 -0.5 Z"/><text text-anchor="middle" pointer-events="none" font-size="8px" fill="#000000" x="71.1490519898282" y="3" font-family="sans-serif">ACTED_IN</text></g><g class="relationship" transform="translate(-126.20034653935355 28.950086466875042) rotate(364.41274098713643)"><path class="outline" fill="#A5ABB6" stroke="none" d="M 25 0.5 L 47.97081820264546 0.5 L 47.97081820264546 -0.5 L 25 -0.5 Z M 93.53331820264546 0.5 L 116.50413640529092 0.5 L 116.50413640529092 3.5 L 123.50413640529092 0 L 116.50413640529092 -3.5 L 116.50413640529092 -0.5 L 93.53331820264546 -0.5 Z"/><text text-anchor="middle" pointer-events="none" font-size="8px" fill="#000000" x="70.75206820264546" y="3" font-family="sans-serif">ACTED_IN</text></g><g class="relationship" transform="translate(-91.0650687261634 136.40044894281294) rotate(319.62515651821127)"><path class="outline" fill="#A5ABB6" stroke="none" d="M 25 0.5 L 47.83614507966362 0.5 L 47.83614507966362 -0.5 L 25 -0.5 Z M 93.39864507966362 0.5 L 116.23479015932725 0.5 L 116.23479015932725 3.5 L 123.23479015932725 0 L 116.23479015932725 -3.5 L 116.23479015932725 -0.5 L 93.39864507966362 -0.5 Z"/><text text-anchor="middle" pointer-events="none" font-size="8px" fill="#000000" x="70.61739507966362" y="3" font-family="sans-serif">ACTED_IN</text></g></g><g class="layer nodes"><g class="node" aria-label="graph-node347" transform="translate(15.766880149775451,188.85826794316105)" style="touch-action: none; -webkit-tap-highlight-color: rgba(0, 0, 0, 0);"><circle class="outline" cx="0" cy="0" r="25" fill="#C990C0" stroke="#b261a5" stroke-width="2px"/><text class="caption" text-anchor="middle" pointer-events="none" x="0" y="5" font-size="10px" fill="#FFFFFF" font-family="sans-serif"> Christop…</text></g><g class="node" aria-label="graph-node340" transform="translate(21.863574212867174,40.37610506310334)" style="touch-action: none; -webkit-tap-highlight-color: rgba(0, 0, 0, 0);"><circle class="outline" cx="0" cy="0" r="25" fill="#F79767" stroke="#f36924" stroke-width="2px"/><text class="caption" text-anchor="middle" pointer-events="none" x="0" y="-5" font-size="10px" fill="#FFFFFF" font-family="sans-serif"> Captain</text><text class="caption" text-anchor="middle" pointer-events="none" x="0" y="5" font-size="10px" fill="#FFFFFF" font-family="sans-serif"> America:</text><text class="caption" text-anchor="middle" pointer-events="none" x="0" y="15" font-size="10px" fill="#FFFFFF" font-family="sans-serif"> Th</text></g><g class="node" aria-label="graph-node348" transform="translate(130.75501263715464,140.81729608757144)" style="touch-action: none; -webkit-tap-highlight-color: rgba(0, 0, 0, 0);"><circle class="outline" cx="0" cy="0" r="25" fill="#C990C0" stroke="#b261a5" stroke-width="2px"/><text class="caption" text-anchor="middle" pointer-events="none" x="0" y="0" font-size="10px" fill="#FFFFFF" font-family="sans-serif"> Stephen</text><text class="caption" text-anchor="middle" pointer-events="none" x="0" y="10" font-size="10px" fill="#FFFFFF" font-family="sans-serif"> McFe…</text></g><g class="node" aria-label="graph-node344" transform="translate(169.45549610666592,23.445215088733356)" style="touch-action: none; -webkit-tap-highlight-color: rgba(0, 0, 0, 0);"><circle class="outline" cx="0" cy="0" r="25" fill="#C990C0" stroke="#b261a5" stroke-width="2px"/><text class="caption" text-anchor="middle" pointer-events="none" x="0" y="0" font-size="10px" fill="#FFFFFF" font-family="sans-serif"> Dominic</text><text class="caption" text-anchor="middle" pointer-events="none" x="0" y="10" font-size="10px" fill="#FFFFFF" font-family="sans-serif"> Cooper</text></g><g class="node" aria-label="graph-node343" transform="translate(121.43606399975482,-70.28553450934244)" style="touch-action: none; -webkit-tap-highlight-color: rgba(0, 0, 0, 0);"><circle class="outline" cx="0" cy="0" r="25" fill="#C990C0" stroke="#b261a5" stroke-width="2px"/><text class="caption" text-anchor="middle" pointer-events="none" x="0" y="0" font-size="10px" fill="#FFFFFF" font-family="sans-serif"> Tommy</text><text class="caption" text-anchor="middle" pointer-events="none" x="0" y="10" font-size="10px" fill="#FFFFFF" font-family="sans-serif"> J…</text></g><g class="node" aria-label="graph-node342" transform="translate(17.16740297238801,-108.3393532661863)" style="touch-action: none; -webkit-tap-highlight-color: rgba(0, 0, 0, 0);"><circle class="outline" cx="0" cy="0" r="25" fill="#C990C0" stroke="#b261a5" stroke-width="2px"/><text class="caption" text-anchor="middle" pointer-events="none" x="0" y="0" font-size="10px" fill="#FFFFFF" font-family="sans-serif"> Sebastian</text><text class="caption" text-anchor="middle" pointer-events="none" x="0" y="10" font-size="10px" fill="#FFFFFF" font-family="sans-serif"> Stan</text></g><g class="node" aria-label="graph-node341" transform="translate(-80.84683638313206,-67.97746159310572)" style="touch-action: none; -webkit-tap-highlight-color: rgba(0, 0, 0, 0);"><circle class="outline" cx="0" cy="0" r="25" fill="#C990C0" stroke="#b261a5" stroke-width="2px"/><text class="caption" text-anchor="middle" pointer-events="none" x="0" y="0" font-size="10px" fill="#FFFFFF" font-family="sans-serif"> Hayley</text><text class="caption" text-anchor="middle" pointer-events="none" x="0" y="10" font-size="10px" fill="#FFFFFF" font-family="sans-serif"> Atwell</text></g><g class="node" aria-label="graph-node346" transform="translate(-126.20034653935355,28.950086466875042)" style="touch-action: none; -webkit-tap-highlight-color: rgba(0, 0, 0, 0);"><circle class="outline" cx="0" cy="0" r="25" fill="#C990C0" stroke="#b261a5" stroke-width="2px"/><text class="caption" text-anchor="middle" pointer-events="none" x="0" y="0" font-size="10px" fill="#FFFFFF" font-family="sans-serif"> Samuel L.</text><text class="caption" text-anchor="middle" pointer-events="none" x="0" y="10" font-size="10px" fill="#FFFFFF" font-family="sans-serif"> Jackson</text></g><g class="node" aria-label="graph-node345" transform="translate(-91.0650687261634,136.40044894281294)" style="touch-action: none; -webkit-tap-highlight-color: rgba(0, 0, 0, 0);"><circle class="outline" cx="0" cy="0" r="25" fill="#C990C0" stroke="#b261a5" stroke-width="2px"/><text class="caption" text-anchor="middle" pointer-events="none" x="0" y="0" font-size="10px" fill="#FFFFFF" font-family="sans-serif"> Chris</text><text class="caption" text-anchor="middle" pointer-events="none" x="0" y="10" font-size="10px" fill="#FFFFFF" font-family="sans-serif"> Evans</text></g></g></svg>