<svg xmlns="http://www.w3.org/2000/svg" width="780.0609741210938" height="785.2369384765625" viewBox="-370.9098815917969 -313.3337097167969 780.0609741210938 785.2369384765625"><title>Neo4j Graph Visualization</title><desc>Created using Neo4j (http://www.neo4j.com/)</desc><g class="layer relationships"><g class="relationship" transform="translate(-23.055800346362926 -42.86857564340827) rotate(428.3085114874116)"><path class="outline" fill="#A5ABB6" stroke="none" d="M 25 0.5 L 70.90768611602257 0.5 L 70.90768611602257 -0.5 L 25 -0.5 Z M 105.35299861602257 0.5 L 151.26068473204515 0.5 L 151.26068473204515 3.5 L 158.26068473204515 0 L 151.26068473204515 -3.5 L 151.26068473204515 -0.5 L 105.35299861602257 -0.5 Z"/><text text-anchor="middle" pointer-events="none" font-size="8px" fill="#000000" x="88.13034236602257" y="3" font-family="sans-serif">ORIGIN</text></g><g class="relationship" transform="translate(-23.055800346362926 -42.86857564340827) rotate(266.32463858061203)"><path class="outline" fill="#A5ABB6" stroke="none" d="M 25 0.5 L 41.20419069743677 0.5 L 41.20419069743677 -0.5 L 25 -0.5 Z M 100.39169069743677 0.5 L 116.59588139487354 0.5 L 116.59588139487354 3.5 L 123.59588139487354 0 L 116.59588139487354 -3.5 L 116.59588139487354 -0.5 L 100.39169069743677 -0.5 Z"/><text text-anchor="middle" pointer-events="none" font-size="8px" fill="#000000" x="70.79794069743677" y="3" transform="rotate(180 70.79794069743677 0)" font-family="sans-serif">DESTINATION</text></g><g class="relationship" transform="translate(90.09789930434772 358.594583763476) rotate(258.88489102566797)"><path class="outline" fill="#A5ABB6" stroke="none" d="M 25 0.5 L 97.07685530922357 0.5 L 97.07685530922357 -0.5 L 25 -0.5 Z M 131.52216780922356 0.5 L 203.59902311844715 0.5 L 203.59902311844715 3.5 L 210.59902311844715 0 L 203.59902311844715 -3.5 L 203.59902311844715 -0.5 L 131.52216780922356 -0.5 Z"/><text text-anchor="middle" pointer-events="none" font-size="8px" fill="#000000" x="114.29951155922357" y="3" transform="rotate(180 114.29951155922357 0)" font-family="sans-serif">ORIGIN</text></g><g class="relationship" transform="translate(90.09789930434772 358.594583763476) rotate(506.5033149438718)"><path class="outline" fill="#A5ABB6" stroke="none" d="M 25 0.5 L 43.28818067000893 0.5 L 43.28818067000893 -0.5 L 25 -0.5 Z M 102.47568067000893 0.5 L 120.76386134001785 0.5 L 120.76386134001785 3.5 L 127.76386134001785 0 L 120.76386134001785 -3.5 L 120.76386134001785 -0.5 L 102.47568067000893 -0.5 Z"/><text text-anchor="middle" pointer-events="none" font-size="8px" fill="#000000" x="72.88193067000893" y="3" transform="rotate(180 72.88193067000893 0)" font-family="sans-serif">DESTINATION</text></g><g class="relationship" transform="translate(151.9071429115643 106.56017484942168) rotate(528.9939578779686)"><path class="outline" fill="#A5ABB6" stroke="none" d="M 25 0.5 L 33.896039757162754 0.5 L 33.896039757162754 -0.5 L 25 -0.5 Z M 68.34135225716275 0.5 L 77.23739201432551 0.5 L 77.23739201432551 3.5 L 84.23739201432551 0 L 77.23739201432551 -3.5 L 77.23739201432551 -0.5 L 68.34135225716275 -0.5 Z"/><text text-anchor="middle" pointer-events="none" font-size="8px" fill="#000000" x="51.118696007162754" y="3" transform="rotate(180 51.118696007162754 0)" font-family="sans-serif">ORIGIN</text></g><g class="relationship" transform="translate(151.9071429115643 106.56017484942168) rotate(196.39554931285312)"><path class="outline" fill="#A5ABB6" stroke="none" d="M 25 0.5 L 57.44684330606822 0.5 L 57.44684330606822 -0.5 L 25 -0.5 Z M 116.63434330606822 0.5 L 149.08118661213643 0.5 L 149.08118661213643 3.5 L 156.08118661213643 0 L 149.08118661213643 -3.5 L 149.08118661213643 -0.5 L 116.63434330606822 -0.5 Z"/><text text-anchor="middle" pointer-events="none" font-size="8px" fill="#000000" x="87.04059330606822" y="3" transform="rotate(180 87.04059330606822 0)" font-family="sans-serif">DESTINATION</text></g><g class="relationship" transform="translate(70.82073135201992 -27.59808571926015) rotate(459.572432521869)"><path class="outline" fill="#A5ABB6" stroke="none" d="M 25 0.5 L 57.878293318220656 0.5 L 57.878293318220656 -0.5 L 25 -0.5 Z M 92.32360581822066 0.5 L 125.20189913644131 0.5 L 125.20189913644131 3.5 L 132.2018991364413 0 L 125.20189913644131 -3.5 L 125.20189913644131 -0.5 L 92.32360581822066 -0.5 Z"/><text text-anchor="middle" pointer-events="none" font-size="8px" fill="#000000" x="75.10094956822066" y="3" transform="rotate(180 75.10094956822066 0)" font-family="sans-serif">ORIGIN</text></g><g class="relationship" transform="translate(70.82073135201992 -27.59808571926015) rotate(237.69920286350526)"><path class="outline" fill="#A5ABB6" stroke="none" d="M 25 0.5 L 63.658630638188555 0.5 L 63.658630638188555 -0.5 L 25 -0.5 Z M 122.84613063818855 0.5 L 161.5047612763771 0.5 L 161.5047612763771 3.5 L 168.5047612763771 0 L 161.5047612763771 -3.5 L 161.5047612763771 -0.5 L 122.84613063818855 -0.5 Z"/><text text-anchor="middle" pointer-events="none" font-size="8px" fill="#000000" x="93.25238063818855" y="3" transform="rotate(180 93.25238063818855 0)" font-family="sans-serif">DESTINATION</text></g><g class="relationship" transform="translate(163.34255694358123 8.502096730921266) rotate(494.9398879598343)"><path class="outline" fill="#A5ABB6" stroke="none" d="M 25 0.5 L 63.27335712305543 0.5 L 63.27335712305543 -0.5 L 25 -0.5 Z M 97.71866962305543 0.5 L 135.99202674611087 0.5 L 135.99202674611087 3.5 L 142.99202674611087 0 L 135.99202674611087 -3.5 L 135.99202674611087 -0.5 L 97.71866962305543 -0.5 Z"/><text text-anchor="middle" pointer-events="none" font-size="8px" fill="#000000" x="80.49601337305543" y="3" transform="rotate(180 80.49601337305543 0)" font-family="sans-serif">ORIGIN</text></g><g class="relationship" transform="translate(163.34255694358123 8.502096730921266) rotate(525.772691568957)"><path class="outline" fill="#A5ABB6" stroke="none" d="M 25 0.5 L 62.412124450999016 0.5 L 62.412124450999016 -0.5 L 25 -0.5 Z M 121.59962445099902 0.5 L 159.01174890199803 0.5 L 159.01174890199803 3.5 L 166.01174890199803 0 L 159.01174890199803 -3.5 L 159.01174890199803 -0.5 L 121.59962445099902 -0.5 Z"/><text text-anchor="middle" pointer-events="none" font-size="8px" fill="#000000" x="92.00587445099902" y="3" transform="rotate(180 92.00587445099902 0)" font-family="sans-serif">DESTINATION</text></g><g class="relationship" transform="translate(243.42739184408563 68.33935947104946) rotate(523.4460475169951)"><path class="outline" fill="#A5ABB6" stroke="none" d="M 25 0.5 L 82.94854326463154 0.5 L 82.94854326463154 -0.5 L 25 -0.5 Z M 117.39385576463154 0.5 L 175.34239902926308 0.5 L 175.34239902926308 3.5 L 182.34239902926308 0 L 175.34239902926308 -3.5 L 175.34239902926308 -0.5 L 117.39385576463154 -0.5 Z"/><text text-anchor="middle" pointer-events="none" font-size="8px" fill="#000000" x="100.17119951463154" y="3" transform="rotate(180 100.17119951463154 0)" font-family="sans-serif">ORIGIN</text></g><g class="relationship" transform="translate(243.42739184408563 68.33935947104946) rotate(413.8193032124168)"><path class="outline" fill="#A5ABB6" stroke="none" d="M 25 0.5 L 53.40328728828776 0.5 L 53.40328728828776 -0.5 L 25 -0.5 Z M 112.59078728828776 0.5 L 140.9940745765755 0.5 L 140.9940745765755 3.5 L 147.9940745765755 0 L 140.9940745765755 -3.5 L 140.9940745765755 -0.5 L 112.59078728828776 -0.5 Z"/><text text-anchor="middle" pointer-events="none" font-size="8px" fill="#000000" x="82.99703728828776" y="3" font-family="sans-serif">DESTINATION</text></g><g class="relationship" transform="translate(-99.95962706942595 -101.22494461767793) rotate(417.68238081275473)"><path class="outline" fill="#A5ABB6" stroke="none" d="M 25 0.5 L 114.55162372452037 0.5 L 114.55162372452037 -0.5 L 25 -0.5 Z M 148.99693622452037 0.5 L 238.54855994904074 0.5 L 238.54855994904074 3.5 L 245.54855994904074 0 L 238.54855994904074 -3.5 L 238.54855994904074 -0.5 L 148.99693622452037 -0.5 Z"/><text text-anchor="middle" pointer-events="none" font-size="8px" fill="#000000" x="131.77427997452037" y="3" font-family="sans-serif">ORIGIN</text></g><g class="relationship" transform="translate(-99.95962706942595 -101.22494461767793) rotate(423.48964278239924)"><path class="outline" fill="#A5ABB6" stroke="none" d="M 25 0.5 L 54.4467549245462 0.5 L 54.4467549245462 -0.5 L 25 -0.5 Z M 113.6342549245462 0.5 L 143.0810098490924 0.5 L 143.0810098490924 3.5 L 150.0810098490924 0 L 143.0810098490924 -3.5 L 143.0810098490924 -0.5 L 113.6342549245462 -0.5 Z"/><text text-anchor="middle" pointer-events="none" font-size="8px" fill="#000000" x="84.0405049245462" y="3" font-family="sans-serif">DESTINATION</text></g><g class="relationship" transform="translate(135.6534959650802 -101.63474656912014) rotate(471.6621126746003)"><path class="outline" fill="#A5ABB6" stroke="none" d="M 25 0.5 L 102.50491403767471 0.5 L 102.50491403767471 -0.5 L 25 -0.5 Z M 136.95022653767472 0.5 L 214.45514057534942 0.5 L 214.45514057534942 3.5 L 221.45514057534942 0 L 214.45514057534942 -3.5 L 214.45514057534942 -0.5 L 136.95022653767472 -0.5 Z"/><text text-anchor="middle" pointer-events="none" font-size="8px" fill="#000000" x="119.72757028767471" y="3" transform="rotate(180 119.72757028767471 0)" font-family="sans-serif">ORIGIN</text></g><g class="relationship" transform="translate(135.6534959650802 -101.63474656912014) rotate(208.01913413369977)"><path class="outline" fill="#A5ABB6" stroke="none" d="M 25 0.5 L 62.19200244322589 0.5 L 62.19200244322589 -0.5 L 25 -0.5 Z M 121.37950244322589 0.5 L 158.57150488645178 0.5 L 158.57150488645178 3.5 L 165.57150488645178 0 L 158.57150488645178 -3.5 L 158.57150488645178 -0.5 L 121.37950244322589 -0.5 Z"/><text text-anchor="middle" pointer-events="none" font-size="8px" fill="#000000" x="91.78575244322589" y="3" transform="rotate(180 91.78575244322589 0)" font-family="sans-serif">DESTINATION</text></g><g class="relationship" transform="translate(39.079556361866686 -119.76424618114373) rotate(448.70229110822146)"><path class="outline" fill="#A5ABB6" stroke="none" d="M 25 0.5 L 102.89865362904426 0.5 L 102.89865362904426 -0.5 L 25 -0.5 Z M 137.34396612904425 0.5 L 215.24261975808852 0.5 L 215.24261975808852 3.5 L 222.24261975808852 0 L 215.24261975808852 -3.5 L 215.24261975808852 -0.5 L 137.34396612904425 -0.5 Z"/><text text-anchor="middle" pointer-events="none" font-size="8px" fill="#000000" x="120.12130987904426" y="3" font-family="sans-serif">ORIGIN</text></g><g class="relationship" transform="translate(39.079556361866686 -119.76424618114373) rotate(276.5473729955118)"><path class="outline" fill="#A5ABB6" stroke="none" d="M 25 0.5 L 49.73117672935605 0.5 L 49.73117672935605 -0.5 L 25 -0.5 Z M 108.91867672935605 0.5 L 133.6498534587121 0.5 L 133.6498534587121 3.5 L 140.6498534587121 0 L 133.6498534587121 -3.5 L 133.6498534587121 -0.5 L 108.91867672935605 -0.5 Z"/><text text-anchor="middle" pointer-events="none" font-size="8px" fill="#000000" x="79.32492672935605" y="3" font-family="sans-serif">DESTINATION</text></g><g class="relationship" transform="translate(-112.723027727115 -6.119075821824193) rotate(400.31004568392666)"><path class="outline" fill="#A5ABB6" stroke="none" d="M 25 0.5 L 82.48432104284059 0.5 L 82.48432104284059 -0.5 L 25 -0.5 Z M 116.92963354284059 0.5 L 174.41395458568118 0.5 L 174.41395458568118 3.5 L 181.41395458568118 0 L 174.41395458568118 -3.5 L 174.41395458568118 -0.5 L 116.92963354284059 -0.5 Z"/><text text-anchor="middle" pointer-events="none" font-size="8px" fill="#000000" x="99.70697729284059" y="3" font-family="sans-serif">ORIGIN</text></g><g class="relationship" transform="translate(-112.723027727115 -6.119075821824193) rotate(293.41770736977037)"><path class="outline" fill="#A5ABB6" stroke="none" d="M 25 0.5 L 67.7308683225062 0.5 L 67.7308683225062 -0.5 L 25 -0.5 Z M 126.9183683225062 0.5 L 169.6492366450124 0.5 L 169.6492366450124 3.5 L 176.6492366450124 0 L 169.6492366450124 -3.5 L 169.6492366450124 -0.5 L 126.9183683225062 -0.5 Z"/><text text-anchor="middle" pointer-events="none" font-size="8px" fill="#000000" x="97.3246183225062" y="3" font-family="sans-serif">DESTINATION</text></g><g class="relationship" transform="translate(-112.71323059410366 93.23364664221396) rotate(372.2528232631605)"><path class="outline" fill="#A5ABB6" stroke="none" d="M 25 0.5 L 59.80786603861257 0.5 L 59.80786603861257 -0.5 L 25 -0.5 Z M 94.25317853861257 0.5 L 129.06104457722515 0.5 L 129.06104457722515 3.5 L 136.06104457722515 0 L 129.06104457722515 -3.5 L 129.06104457722515 -0.5 L 94.25317853861257 -0.5 Z"/><text text-anchor="middle" pointer-events="none" font-size="8px" fill="#000000" x="77.03052228861257" y="3" font-family="sans-serif">ORIGIN</text></g><g class="relationship" transform="translate(-112.71323059410366 93.23364664221396) rotate(337.42817397113754)"><path class="outline" fill="#A5ABB6" stroke="none" d="M 25 0.5 L 26.94248177886709 0.5 L 26.94248177886709 -0.5 L 25 -0.5 Z M 64.50107552886709 0.5 L 66.44355730773418 0.5 L 66.44355730773418 3.5 L 73.44355730773418 0 L 66.44355730773418 -3.5 L 66.44355730773418 -0.5 L 64.50107552886709 -0.5 Z"/><text text-anchor="middle" pointer-events="none" font-size="8px" fill="#000000" x="45.72177865386709" y="3" font-family="sans-serif">DESTI…</text></g><g class="relationship" transform="translate(-198.68815706284403 45.91172652139256) rotate(378.51561100960294)"><path class="outline" fill="#A5ABB6" stroke="none" d="M 25 0.5 L 107.60341758328539 0.5 L 107.60341758328539 -0.5 L 25 -0.5 Z M 142.0487300832854 0.5 L 224.65214766657078 0.5 L 224.65214766657078 3.5 L 231.65214766657078 0 L 224.65214766657078 -3.5 L 224.65214766657078 -0.5 L 142.0487300832854 -0.5 Z"/><text text-anchor="middle" pointer-events="none" font-size="8px" fill="#000000" x="124.82607383328539" y="3" font-family="sans-serif">ORIGIN</text></g><g class="relationship" transform="translate(-198.68815706284403 45.91172652139256) rotate(210.75335635858056)"><path class="outline" fill="#A5ABB6" stroke="none" d="M 25 0.5 L 50.23510947342349 0.5 L 50.23510947342349 -0.5 L 25 -0.5 Z M 109.42260947342349 0.5 L 134.65771894684698 0.5 L 134.65771894684698 3.5 L 141.65771894684698 0 L 134.65771894684698 -3.5 L 134.65771894684698 -0.5 L 109.42260947342349 -0.5 Z"/><text text-anchor="middle" pointer-events="none" font-size="8px" fill="#000000" x="79.82885947342349" y="3" transform="rotate(180 79.82885947342349 0)" font-family="sans-serif">DESTINATION</text></g><g class="relationship" transform="translate(-95.30009799878957 290.464630646629) rotate(310.6462729216912)"><path class="outline" fill="#A5ABB6" stroke="none" d="M 25 0.5 L 86.72422426862823 0.5 L 86.72422426862823 -0.5 L 25 -0.5 Z M 121.16953676862823 0.5 L 182.89376103725647 0.5 L 182.89376103725647 3.5 L 189.89376103725647 0 L 182.89376103725647 -3.5 L 182.89376103725647 -0.5 L 121.16953676862823 -0.5 Z"/><text text-anchor="middle" pointer-events="none" font-size="8px" fill="#000000" x="103.94688051862823" y="3" font-family="sans-serif">ORIGIN</text></g><g class="relationship" transform="translate(-95.30009799878957 290.464630646629) rotate(429.1673228165804)"><path class="outline" fill="#A5ABB6" stroke="none" d="M 25 0.5 L 48.45710426850346 0.5 L 48.45710426850346 -0.5 L 25 -0.5 Z M 107.64460426850346 0.5 L 131.1017085370069 0.5 L 131.1017085370069 3.5 L 138.1017085370069 0 L 131.1017085370069 -3.5 L 131.1017085370069 -0.5 L 107.64460426850346 -0.5 Z"/><text text-anchor="middle" pointer-events="none" font-size="8px" fill="#000000" x="78.05085426850346" y="3" font-family="sans-serif">DESTINATION</text></g><g class="relationship" transform="translate(-195.32780428394912 145.12319625020183) rotate(355.7802350041161)"><path class="outline" fill="#A5ABB6" stroke="none" d="M 25 0.5 L 99.60691496250254 0.5 L 99.60691496250254 -0.5 L 25 -0.5 Z M 134.05222746250254 0.5 L 208.6591424250051 0.5 L 208.6591424250051 3.5 L 215.6591424250051 0 L 208.6591424250051 -3.5 L 208.6591424250051 -0.5 L 134.05222746250254 -0.5 Z"/><text text-anchor="middle" pointer-events="none" font-size="8px" fill="#000000" x="116.82957121250254" y="3" font-family="sans-serif">ORIGIN</text></g><g class="relationship" transform="translate(-195.32780428394912 145.12319625020183) rotate(332.6694194753045)"><path class="outline" fill="#A5ABB6" stroke="none" d="M 25 0.5 L 64.56646594167705 0.5 L 64.56646594167705 -0.5 L 25 -0.5 Z M 123.75396594167705 0.5 L 163.3204318833541 0.5 L 163.3204318833541 3.5 L 170.3204318833541 0 L 163.3204318833541 -3.5 L 163.3204318833541 -0.5 L 123.75396594167705 -0.5 Z"/><text text-anchor="middle" pointer-events="none" font-size="8px" fill="#000000" x="94.16021594167705" y="3" font-family="sans-serif">DESTINATION</text></g><g class="relationship" transform="translate(-110.51250312345222 192.26001867201595) rotate(337.32291977980196)"><path class="outline" fill="#A5ABB6" stroke="none" d="M 25 0.5 L 63.37441296617709 0.5 L 63.37441296617709 -0.5 L 25 -0.5 Z M 97.81972546617709 0.5 L 136.19413843235418 0.5 L 136.19413843235418 3.5 L 143.19413843235418 0 L 136.19413843235418 -3.5 L 136.19413843235418 -0.5 L 97.81972546617709 -0.5 Z"/><text text-anchor="middle" pointer-events="none" font-size="8px" fill="#000000" x="80.59706921617709" y="3" font-family="sans-serif">ORIGIN</text></g><g class="relationship" transform="translate(-110.51250312345222 192.26001867201595) rotate(302.9571238301838)"><path class="outline" fill="#A5ABB6" stroke="none" d="M 25 0.5 L 48.432098364551905 0.5 L 48.432098364551905 -0.5 L 25 -0.5 Z M 107.6195983645519 0.5 L 131.0516967291038 0.5 L 131.0516967291038 3.5 L 138.0516967291038 0 L 131.0516967291038 -3.5 L 131.0516967291038 -0.5 L 107.6195983645519 -0.5 Z"/><text text-anchor="middle" pointer-events="none" font-size="8px" fill="#000000" x="78.0258483645519" y="3" font-family="sans-serif">DESTINATION</text></g><g class="relationship" transform="translate(178.94361366098042 250.50722676049412) rotate(222.51423208908568)"><path class="outline" fill="#A5ABB6" stroke="none" d="M 25 0.5 L 70.35245920224402 0.5 L 70.35245920224402 -0.5 L 25 -0.5 Z M 104.79777170224402 0.5 L 150.15023090448804 0.5 L 150.15023090448804 3.5 L 157.15023090448804 0 L 150.15023090448804 -3.5 L 150.15023090448804 -0.5 L 104.79777170224402 -0.5 Z"/><text text-anchor="middle" pointer-events="none" font-size="8px" fill="#000000" x="87.57511545224402" y="3" transform="rotate(180 87.57511545224402 0)" font-family="sans-serif">ORIGIN</text></g><g class="relationship" transform="translate(178.94361366098042 250.50722676049412) rotate(345.67860935428257)"><path class="outline" fill="#A5ABB6" stroke="none" d="M 25 0.5 L 52.882093414873495 0.5 L 52.882093414873495 -0.5 L 25 -0.5 Z M 112.0695934148735 0.5 L 139.951686829747 0.5 L 139.951686829747 3.5 L 146.951686829747 0 L 139.951686829747 -3.5 L 139.951686829747 -0.5 L 112.0695934148735 -0.5 Z"/><text text-anchor="middle" pointer-events="none" font-size="8px" fill="#000000" x="82.4758434148735" y="3" font-family="sans-serif">DESTINATION</text></g><g class="relationship" transform="translate(-16.778514616791647 223.4224887542581) rotate(302.62459592126686)"><path class="outline" fill="#A5ABB6" stroke="none" d="M 25 0.5 L 36.27397819607655 0.5 L 36.27397819607655 -0.5 L 25 -0.5 Z M 70.71929069607654 0.5 L 81.9932688921531 0.5 L 81.9932688921531 3.5 L 88.9932688921531 0 L 81.9932688921531 -3.5 L 81.9932688921531 -0.5 L 70.71929069607654 -0.5 Z"/><text text-anchor="middle" pointer-events="none" font-size="8px" fill="#000000" x="53.49663444607655" y="3" font-family="sans-serif">ORIGIN</text></g><g class="relationship" transform="translate(-16.778514616791647 223.4224887542581) rotate(268.28410935124487)"><path class="outline" fill="#A5ABB6" stroke="none" d="M 25 0.5 L 50.93170044949855 0.5 L 50.93170044949855 -0.5 L 25 -0.5 Z M 110.11920044949855 0.5 L 136.0509008989971 0.5 L 136.0509008989971 3.5 L 143.0509008989971 0 L 136.0509008989971 -3.5 L 136.0509008989971 -0.5 L 110.11920044949855 -0.5 Z"/><text text-anchor="middle" pointer-events="none" font-size="8px" fill="#000000" x="80.52545044949855" y="3" transform="rotate(180 80.52545044949855 0)" font-family="sans-serif">DESTINATION</text></g><g class="relationship" transform="translate(231.6334037300878 166.1524457038362) rotate(191.70619440174062)"><path class="outline" fill="#A5ABB6" stroke="none" d="M 25 0.5 L 74.74011306003467 0.5 L 74.74011306003467 -0.5 L 25 -0.5 Z M 109.18542556003467 0.5 L 158.92553862006935 0.5 L 158.92553862006935 3.5 L 165.92553862006935 0 L 158.92553862006935 -3.5 L 158.92553862006935 -0.5 L 109.18542556003467 -0.5 Z"/><text text-anchor="middle" pointer-events="none" font-size="8px" fill="#000000" x="91.96276931003467" y="3" transform="rotate(180 91.96276931003467 0)" font-family="sans-serif">ORIGIN</text></g><g class="relationship" transform="translate(231.6334037300878 166.1524457038362) rotate(336.0536822455564)"><path class="outline" fill="#A5ABB6" stroke="none" d="M 25 0.5 L 48.15881825687421 0.5 L 48.15881825687421 -0.5 L 25 -0.5 Z M 107.34631825687421 0.5 L 130.50513651374843 0.5 L 130.50513651374843 3.5 L 137.50513651374843 0 L 130.50513651374843 -3.5 L 130.50513651374843 -0.5 L 107.34631825687421 -0.5 Z"/><text text-anchor="middle" pointer-events="none" font-size="8px" fill="#000000" x="77.75256825687421" y="3" font-family="sans-serif">DESTINATION</text></g><g class="relationship" transform="translate(-1.7132159911278952 321.31782845665685) rotate(283.4553472182057)"><path class="outline" fill="#A5ABB6" stroke="none" d="M 25 0.5 L 78.96505034953589 0.5 L 78.96505034953589 -0.5 L 25 -0.5 Z M 113.41036284953589 0.5 L 167.37541319907177 0.5 L 167.37541319907177 3.5 L 174.37541319907177 0 L 167.37541319907177 -3.5 L 167.37541319907177 -0.5 L 113.41036284953589 -0.5 Z"/><text text-anchor="middle" pointer-events="none" font-size="8px" fill="#000000" x="96.18770659953589" y="3" font-family="sans-serif">ORIGIN</text></g><g class="relationship" transform="translate(-1.7132159911278952 321.31782845665685) rotate(466.3118588570061)"><path class="outline" fill="#A5ABB6" stroke="none" d="M 25 0.5 L 30.24866587369366 0.5 L 30.24866587369366 -0.5 L 25 -0.5 Z M 89.43616587369365 0.5 L 94.68483174738732 0.5 L 94.68483174738732 3.5 L 101.68483174738732 0 L 94.68483174738732 -3.5 L 94.68483174738732 -0.5 L 89.43616587369365 -0.5 Z"/><text text-anchor="middle" pointer-events="none" font-size="8px" fill="#000000" x="59.84241587369366" y="3" transform="rotate(180 59.84241587369366 0)" font-family="sans-serif">DESTINATION</text></g><g class="relationship" transform="translate(76.04755954713912 262.30744632714885) rotate(256.9088057786977)"><path class="outline" fill="#A5ABB6" stroke="none" d="M 25 0.5 L 48.52323301975777 0.5 L 48.52323301975777 -0.5 L 25 -0.5 Z M 82.96854551975777 0.5 L 106.49177853951554 0.5 L 106.49177853951554 3.5 L 113.49177853951554 0 L 106.49177853951554 -3.5 L 106.49177853951554 -0.5 L 82.96854551975777 -0.5 Z"/><text text-anchor="middle" pointer-events="none" font-size="8px" fill="#000000" x="65.74588926975777" y="3" transform="rotate(180 65.74588926975777 0)" font-family="sans-serif">ORIGIN</text></g><g class="relationship" transform="translate(76.04755954713912 262.30744632714885) rotate(482.11243583694)"><path class="outline" fill="#A5ABB6" stroke="none" d="M 25 0.5 L 73.51451018376648 0.5 L 73.51451018376648 -0.5 L 25 -0.5 Z M 132.70201018376648 0.5 L 181.21652036753295 0.5 L 181.21652036753295 3.5 L 188.21652036753295 0 L 181.21652036753295 -3.5 L 181.21652036753295 -0.5 L 132.70201018376648 -0.5 Z"/><text text-anchor="middle" pointer-events="none" font-size="8px" fill="#000000" x="103.10826018376648" y="3" transform="rotate(180 103.10826018376648 0)" font-family="sans-serif">DESTINATION</text></g></g><g class="layer nodes"><g class="node" aria-label="graph-node364" transform="translate(44.6789481048806,127.41495973422245)" style="touch-action: none; -webkit-tap-highlight-color: rgba(0, 0, 0, 0);"><circle class="outline" cx="0" cy="0" r="25" fill="#8DCC93" stroke="#5db665" stroke-width="2px"/><text class="caption" text-anchor="middle" pointer-events="none" x="0" y="5" font-size="10px" fill="#2A2C34" font-family="sans-serif"> LAX</text></g><g class="node" aria-label="graph-node400" transform="translate(-32.581268028665036,-191.1588363922273)" style="touch-action: none; -webkit-tap-highlight-color: rgba(0, 0, 0, 0);"><circle class="outline" cx="0" cy="0" r="25" fill="#8DCC93" stroke="#5db665" stroke-width="2px"/><text class="caption" text-anchor="middle" pointer-events="none" x="0" y="5" font-size="10px" fill="#2A2C34" font-family="sans-serif"> FAT</text></g><g class="node" aria-label="graph-node372" transform="translate(-37.294596823828,442.90323848969575)" style="touch-action: none; -webkit-tap-highlight-color: rgba(0, 0, 0, 0);"><circle class="outline" cx="0" cy="0" r="25" fill="#8DCC93" stroke="#5db665" stroke-width="2px"/><text class="caption" text-anchor="middle" pointer-events="none" x="0" y="5" font-size="10px" fill="#2A2C34" font-family="sans-serif"> SMF</text></g><g class="node" aria-label="graph-node399" transform="translate(-21.81054088800074,55.44694290138581)" style="touch-action: none; -webkit-tap-highlight-color: rgba(0, 0, 0, 0);"><circle class="outline" cx="0" cy="0" r="25" fill="#8DCC93" stroke="#5db665" stroke-width="2px"/><text class="caption" text-anchor="middle" pointer-events="none" x="0" y="5" font-size="10px" fill="#2A2C34" font-family="sans-serif"> ABQ</text></g><g class="node" aria-label="graph-node401" transform="translate(345.5516352903179,207.9731259429901)" style="touch-action: none; -webkit-tap-highlight-color: rgba(0, 0, 0, 0);"><circle class="outline" cx="0" cy="0" r="25" fill="#8DCC93" stroke="#5db665" stroke-width="2px"/><text class="caption" text-anchor="middle" pointer-events="none" x="0" y="5" font-size="10px" fill="#2A2C34" font-family="sans-serif"> TUS</text></g><g class="node" aria-label="graph-node360" transform="translate(57.9677270404284,-284.33371771007074)" style="touch-action: none; -webkit-tap-highlight-color: rgba(0, 0, 0, 0);"><circle class="outline" cx="0" cy="0" r="25" fill="#8DCC93" stroke="#5db665" stroke-width="2px"/><text class="caption" text-anchor="middle" pointer-events="none" x="0" y="5" font-size="10px" fill="#2A2C34" font-family="sans-serif"> EWR</text></g><g class="node" aria-label="graph-node361" transform="translate(-341.90987739131106,-39.3076029216429)" style="touch-action: none; -webkit-tap-highlight-color: rgba(0, 0, 0, 0);"><circle class="outline" cx="0" cy="0" r="25" fill="#8DCC93" stroke="#5db665" stroke-width="2px"/><text class="caption" text-anchor="middle" pointer-events="none" x="0" y="5" font-size="10px" fill="#2A2C34" font-family="sans-serif"> IAH</text></g><g class="node" aria-label="graph-node384" transform="translate(380.15109606323205,100.19477399394701)" style="touch-action: none; -webkit-tap-highlight-color: rgba(0, 0, 0, 0);"><circle class="outline" cx="0" cy="0" r="25" fill="#8DCC93" stroke="#5db665" stroke-width="2px"/><text class="caption" text-anchor="middle" pointer-events="none" x="0" y="5" font-size="10px" fill="#2A2C34" font-family="sans-serif"> LAS</text></g><g class="node" aria-label="graph-node1310" transform="translate(-23.055800346362926,-42.86857564340827)" style="touch-action: none; -webkit-tap-highlight-color: rgba(0, 0, 0, 0);"><circle class="outline" cx="0" cy="0" r="25" fill="#ECB5C9" stroke="#da7298" stroke-width="2px"/><text class="caption" text-anchor="middle" pointer-events="none" x="0" y="0" font-size="10px" fill="#2A2C34" font-family="sans-serif"> 11/3/2015</text><text class="caption" text-anchor="middle" pointer-events="none" x="0" y="10" font-size="10px" fill="#2A2C34" font-family="sans-serif"> 11:45:…</text></g><g class="node" aria-label="graph-node1354" transform="translate(90.09789930434772,358.594583763476)" style="touch-action: none; -webkit-tap-highlight-color: rgba(0, 0, 0, 0);"><circle class="outline" cx="0" cy="0" r="25" fill="#ECB5C9" stroke="#da7298" stroke-width="2px"/><text class="caption" text-anchor="middle" pointer-events="none" x="0" y="0" font-size="10px" fill="#2A2C34" font-family="sans-serif"> 11/2/2015</text><text class="caption" text-anchor="middle" pointer-events="none" x="0" y="10" font-size="10px" fill="#2A2C34" font-family="sans-serif"> 11:49:…</text></g><g class="node" aria-label="graph-node1334" transform="translate(151.9071429115643,106.56017484942168)" style="touch-action: none; -webkit-tap-highlight-color: rgba(0, 0, 0, 0);"><circle class="outline" cx="0" cy="0" r="25" fill="#ECB5C9" stroke="#da7298" stroke-width="2px"/><text class="caption" text-anchor="middle" pointer-events="none" x="0" y="0" font-size="10px" fill="#2A2C34" font-family="sans-serif"> 11/2/2015</text><text class="caption" text-anchor="middle" pointer-events="none" x="0" y="10" font-size="10px" fill="#2A2C34" font-family="sans-serif"> 15:15:…</text></g><g class="node" aria-label="graph-node1318" transform="translate(70.82073135201992,-27.59808571926015)" style="touch-action: none; -webkit-tap-highlight-color: rgba(0, 0, 0, 0);"><circle class="outline" cx="0" cy="0" r="25" fill="#ECB5C9" stroke="#da7298" stroke-width="2px"/><text class="caption" text-anchor="middle" pointer-events="none" x="0" y="0" font-size="10px" fill="#2A2C34" font-family="sans-serif"> 11/1/2015</text><text class="caption" text-anchor="middle" pointer-events="none" x="0" y="10" font-size="10px" fill="#2A2C34" font-family="sans-serif"> 02:27:…</text></g><g class="node" aria-label="graph-node1290" transform="translate(163.34255694358123,8.502096730921266)" style="touch-action: none; -webkit-tap-highlight-color: rgba(0, 0, 0, 0);"><circle class="outline" cx="0" cy="0" r="25" fill="#ECB5C9" stroke="#da7298" stroke-width="2px"/><text class="caption" text-anchor="middle" pointer-events="none" x="0" y="0" font-size="10px" fill="#2A2C34" font-family="sans-serif"> 11/3/2015</text><text class="caption" text-anchor="middle" pointer-events="none" x="0" y="10" font-size="10px" fill="#2A2C34" font-family="sans-serif"> 21:46:…</text></g><g class="node" aria-label="graph-node1342" transform="translate(243.42739184408563,68.33935947104946)" style="touch-action: none; -webkit-tap-highlight-color: rgba(0, 0, 0, 0);"><circle class="outline" cx="0" cy="0" r="25" fill="#ECB5C9" stroke="#da7298" stroke-width="2px"/><text class="caption" text-anchor="middle" pointer-events="none" x="0" y="0" font-size="10px" fill="#2A2C34" font-family="sans-serif"> 11/2/2015</text><text class="caption" text-anchor="middle" pointer-events="none" x="0" y="10" font-size="10px" fill="#2A2C34" font-family="sans-serif"> 09:52:…</text></g><g class="node" aria-label="graph-node1330" transform="translate(-99.95962706942595,-101.22494461767793)" style="touch-action: none; -webkit-tap-highlight-color: rgba(0, 0, 0, 0);"><circle class="outline" cx="0" cy="0" r="25" fill="#ECB5C9" stroke="#da7298" stroke-width="2px"/><text class="caption" text-anchor="middle" pointer-events="none" x="0" y="0" font-size="10px" fill="#2A2C34" font-family="sans-serif"> 11/1/2015</text><text class="caption" text-anchor="middle" pointer-events="none" x="0" y="10" font-size="10px" fill="#2A2C34" font-family="sans-serif"> 17:17:…</text></g><g class="node" aria-label="graph-node1322" transform="translate(135.6534959650802,-101.63474656912014)" style="touch-action: none; -webkit-tap-highlight-color: rgba(0, 0, 0, 0);"><circle class="outline" cx="0" cy="0" r="25" fill="#ECB5C9" stroke="#da7298" stroke-width="2px"/><text class="caption" text-anchor="middle" pointer-events="none" x="0" y="0" font-size="10px" fill="#2A2C34" font-family="sans-serif"> 11/4/2015</text><text class="caption" text-anchor="middle" pointer-events="none" x="0" y="10" font-size="10px" fill="#2A2C34" font-family="sans-serif"> 15:13:…</text></g><g class="node" aria-label="graph-node902" transform="translate(39.079556361866686,-119.76424618114373)" style="touch-action: none; -webkit-tap-highlight-color: rgba(0, 0, 0, 0);"><circle class="outline" cx="0" cy="0" r="25" fill="#ECB5C9" stroke="#da7298" stroke-width="2px"/><text class="caption" text-anchor="middle" pointer-events="none" x="0" y="5" font-size="10px" fill="#2A2C34" font-family="sans-serif"> 11/29/20…</text></g><g class="node" aria-label="graph-node1314" transform="translate(-112.723027727115,-6.119075821824193)" style="touch-action: none; -webkit-tap-highlight-color: rgba(0, 0, 0, 0);"><circle class="outline" cx="0" cy="0" r="25" fill="#ECB5C9" stroke="#da7298" stroke-width="2px"/><text class="caption" text-anchor="middle" pointer-events="none" x="0" y="0" font-size="10px" fill="#2A2C34" font-family="sans-serif"> 11/2/2015</text><text class="caption" text-anchor="middle" pointer-events="none" x="0" y="10" font-size="10px" fill="#2A2C34" font-family="sans-serif"> 09:18:…</text></g><g class="node" aria-label="graph-node1326" transform="translate(-112.71323059410366,93.23364664221396)" style="touch-action: none; -webkit-tap-highlight-color: rgba(0, 0, 0, 0);"><circle class="outline" cx="0" cy="0" r="25" fill="#ECB5C9" stroke="#da7298" stroke-width="2px"/><text class="caption" text-anchor="middle" pointer-events="none" x="0" y="0" font-size="10px" fill="#2A2C34" font-family="sans-serif"> 11/3/2015</text><text class="caption" text-anchor="middle" pointer-events="none" x="0" y="10" font-size="10px" fill="#2A2C34" font-family="sans-serif"> 23:26:…</text></g><g class="node" aria-label="graph-node462" transform="translate(-198.68815706284403,45.91172652139256)" style="touch-action: none; -webkit-tap-highlight-color: rgba(0, 0, 0, 0);"><circle class="outline" cx="0" cy="0" r="25" fill="#ECB5C9" stroke="#da7298" stroke-width="2px"/><text class="caption" text-anchor="middle" pointer-events="none" x="0" y="5" font-size="10px" fill="#2A2C34" font-family="sans-serif"> 11/30/20…</text></g><g class="node" aria-label="graph-node1358" transform="translate(-95.30009799878957,290.464630646629)" style="touch-action: none; -webkit-tap-highlight-color: rgba(0, 0, 0, 0);"><circle class="outline" cx="0" cy="0" r="25" fill="#ECB5C9" stroke="#da7298" stroke-width="2px"/><text class="caption" text-anchor="middle" pointer-events="none" x="0" y="0" font-size="10px" fill="#2A2C34" font-family="sans-serif"> 11/1/2015</text><text class="caption" text-anchor="middle" pointer-events="none" x="0" y="10" font-size="10px" fill="#2A2C34" font-family="sans-serif"> 12:26:…</text></g><g class="node" aria-label="graph-node1286" transform="translate(-195.32780428394912,145.12319625020183)" style="touch-action: none; -webkit-tap-highlight-color: rgba(0, 0, 0, 0);"><circle class="outline" cx="0" cy="0" r="25" fill="#ECB5C9" stroke="#da7298" stroke-width="2px"/><text class="caption" text-anchor="middle" pointer-events="none" x="0" y="0" font-size="10px" fill="#2A2C34" font-family="sans-serif"> 11/1/2015</text><text class="caption" text-anchor="middle" pointer-events="none" x="0" y="10" font-size="10px" fill="#2A2C34" font-family="sans-serif"> 05:43:…</text></g><g class="node" aria-label="graph-node1282" transform="translate(-110.51250312345222,192.26001867201595)" style="touch-action: none; -webkit-tap-highlight-color: rgba(0, 0, 0, 0);"><circle class="outline" cx="0" cy="0" r="25" fill="#ECB5C9" stroke="#da7298" stroke-width="2px"/><text class="caption" text-anchor="middle" pointer-events="none" x="0" y="0" font-size="10px" fill="#2A2C34" font-family="sans-serif"> 11/4/2015</text><text class="caption" text-anchor="middle" pointer-events="none" x="0" y="10" font-size="10px" fill="#2A2C34" font-family="sans-serif"> 15:09:…</text></g><g class="node" aria-label="graph-node1338" transform="translate(178.94361366098042,250.50722676049412)" style="touch-action: none; -webkit-tap-highlight-color: rgba(0, 0, 0, 0);"><circle class="outline" cx="0" cy="0" r="25" fill="#ECB5C9" stroke="#da7298" stroke-width="2px"/><text class="caption" text-anchor="middle" pointer-events="none" x="0" y="0" font-size="10px" fill="#2A2C34" font-family="sans-serif"> 11/1/2015</text><text class="caption" text-anchor="middle" pointer-events="none" x="0" y="10" font-size="10px" fill="#2A2C34" font-family="sans-serif"> 05:51:…</text></g><g class="node" aria-label="graph-node1278" transform="translate(-16.778514616791647,223.4224887542581)" style="touch-action: none; -webkit-tap-highlight-color: rgba(0, 0, 0, 0);"><circle class="outline" cx="0" cy="0" r="25" fill="#ECB5C9" stroke="#da7298" stroke-width="2px"/><text class="caption" text-anchor="middle" pointer-events="none" x="0" y="0" font-size="10px" fill="#2A2C34" font-family="sans-serif"> 11/2/2015</text><text class="caption" text-anchor="middle" pointer-events="none" x="0" y="10" font-size="10px" fill="#2A2C34" font-family="sans-serif"> 04:43:…</text></g><g class="node" aria-label="graph-node1018" transform="translate(231.6334037300878,166.1524457038362)" style="touch-action: none; -webkit-tap-highlight-color: rgba(0, 0, 0, 0);"><circle class="outline" cx="0" cy="0" r="25" fill="#ECB5C9" stroke="#da7298" stroke-width="2px"/><text class="caption" text-anchor="middle" pointer-events="none" x="0" y="5" font-size="10px" fill="#2A2C34" font-family="sans-serif"> 11/29/20…</text></g><g class="node" aria-label="graph-node1362" transform="translate(-1.7132159911278952,321.31782845665685)" style="touch-action: none; -webkit-tap-highlight-color: rgba(0, 0, 0, 0);"><circle class="outline" cx="0" cy="0" r="25" fill="#ECB5C9" stroke="#da7298" stroke-width="2px"/><text class="caption" text-anchor="middle" pointer-events="none" x="0" y="0" font-size="10px" fill="#2A2C34" font-family="sans-serif"> 11/4/2015</text><text class="caption" text-anchor="middle" pointer-events="none" x="0" y="10" font-size="10px" fill="#2A2C34" font-family="sans-serif"> 05:06:…</text></g><g class="node" aria-label="graph-node1366" transform="translate(76.04755954713912,262.30744632714885)" style="touch-action: none; -webkit-tap-highlight-color: rgba(0, 0, 0, 0);"><circle class="outline" cx="0" cy="0" r="25" fill="#ECB5C9" stroke="#da7298" stroke-width="2px"/><text class="caption" text-anchor="middle" pointer-events="none" x="0" y="0" font-size="10px" fill="#2A2C34" font-family="sans-serif"> 11/3/2015</text><text class="caption" text-anchor="middle" pointer-events="none" x="0" y="10" font-size="10px" fill="#2A2C34" font-family="sans-serif"> 13:44:…</text></g></g></svg>